# xmcd
#
# Track frame offsets: 
#        150
#        7767
#        23427
#        36015
#        47552
#        61625
#        74387
#        81845
#        92600
#        102615
#        115665
#        138252
#        146752
#        158782
#        178130
#        193310
#        206390
#        217917
#        229680
#        239695
#        261165
#        274772
#        297995
#        310112
#        326540
#        342232
#
# Disc length: 4699 seconds
#
# Revision: 2
# Processed by: cddbd v1.5.2PL0 Copyright (c) Steve Scherf et al.
# Submitted via: ExactAudioCopyFreeDBPlugin 1.0
#
DISCID=6f12591a
DTITLE=Various Artist - Mojo presents: Up Yours! Punk's Not Dead
DYEAR=2003
DGENRE=MOJO
TTITLE0=The Clash - 1977
TTITLE1=The Strokes - The Modern Age
TTITLE2=The Adverts - One Chord Wonders
TTITLE3=The Hives - Main Offender
TTITLE4=Vic Godard - Ambition
TTITLE5=Hot Hot Heat - Get In Or Get Out
TTITLE6=Erase Errata - Tongue Tied
TTITLE7=X‐Ray Spex - Identity
TTITLE8=The Hunches - Lisa Told Me
TTITLE9=Johnny Thunders - Chinese Rocks
TTITLE10=Part Chimp - Cover Me
TTITLE11=Undertones - True Confessions
TTITLE12=The Catheters - Pale Horse
TTITLE13=Sex Pistols - Submission
TTITLE14=Yeah Yeah Yeahs - Our Time
TTITLE15=Siouxsie and The Banshees - Hong Kong Garden
TTITLE16=Alternative TV - Action Time Vision
TTITLE17=The Libertines - The Boy Looked At Johnny
TTITLE18=Buzzcocks - Orgasm Addict
TTITLE19=Sleater‐Kinney - Combat Rock
TTITLE20=The Only Ones - Another Girl, Another Planet
TTITLE21=Mudhoney - Urban Guerilla
TTITLE22=The Damned - Neat, Neat, Neat
TTITLE23=The Warlocks - Caveman Rock
TTITLE24=Iggy and The Stooges - Search And Destroy
TTITLE25=Swearing At Motorists - Timing Is Everything
EXTD=
EXTT0=
EXTT1=
EXTT2=
EXTT3=
EXTT4=
EXTT5=
EXTT6=
EXTT7=
EXTT8=
EXTT9=
EXTT10=
EXTT11=
EXTT12=
EXTT13=
EXTT14=
EXTT15=
EXTT16=
EXTT17=
EXTT18=
EXTT19=
EXTT20=
EXTT21=
EXTT22=
EXTT23=
EXTT24=
EXTT25=
PLAYORDER=
